<?xml version="1.0" encoding="utf-8"?>
<!-- Generator: Adobe Illustrator 19.2.1, SVG Export Plug-In . SVG Version: 6.00 Build 0)  -->
<svg version="1.1" id="layer" xmlns="http://www.w3.org/2000/svg" xmlns:xlink="http://www.w3.org/1999/xlink" x="0px" y="0px"
	 viewBox="0 0 652 652" style="enable-background:new 0 0 652 652;" xml:space="preserve">
<style type="text/css">
	.st0{fill:#006B3A;}
	.st1{fill:#1B1A19;}
</style>
<path class="st0" d="M58.4,341c5.3,0.9,22.4-3,28.2-23.4c5.9-21,2.9-16.8-14.3,1.1C63.1,328.3,55.7,340.5,58.4,341L58.4,341z
	 M73.4,354.3c18.6-6.7,18.3-30.9,15.3-24.1c-3,6.6-5,12-11.5,15.7c-5.1,2.9-8.7,3.3-15,3.1c-5.2-0.1-10-4.4-11.5,2.1
	C49.1,358.3,66.5,356.7,73.4,354.3L73.4,354.3z M57.7,322.8C72,303,93.2,295.9,90.8,293.4c-2.9-2.9-15.7,1.1-15.7,1.1
	c-19.8,7-41.4,20.1-42.8,36.4c-0.5,4.8,0.9,13.8,7,17.5C43.4,350.9,50.6,332.6,57.7,322.8L57.7,322.8z M43.8,305.3
	c7.9-5.8,23.1-10.6,19.8-10.5c-11,0.3-33.4,9.4-34.5,23.4C28.8,322.7,35.9,311.1,43.8,305.3L43.8,305.3z M24.3,358
	c-1.3-1.9,3.8-2.9,4.8-5c4.6-8.9-3.6-5.2-7.1-25.5c-6.7-38.4,58.6-38.4,67.3-39.9c8-1.4-0.1-12,6.1-12c2.1,0,0,5.5,2.1,6.3
	c2.2,0.9,3.5-5,5.7-3.1c3,2.6-2.9,4.9-1.3,6.5c1.2,1.2,3.9-1,4.9,0.5c1.6,2.5-2.8,4.1-6.7,4.8c-14.4,2.5,16.5,65.7-33.6,74.4
	c-13.2,2.5-19.4-9.2-29.2-3.5c-2.4,1.4-4.2,6.8-5.7,4.6c-0.9-1.4,1.5-3.6,0-4.5c-1-0.6-2.5,2-3.6,1.1c-0.8-0.8,0.4-2.1-0.5-3.1
	C26.8,358.3,25.2,359.3,24.3,358L24.3,358z"/>
<path d="M137.1,361.9c-13.4,0-15.8-10.2-15.8-20.2v-10.9l-7.2,0.3V318l7.2,0.2v-17l16.4-1.7v18.7l10.6-0.3v13.1l-10.7-0.4v10.6
	c0,4.8,1.4,6.5,4.8,6.5c1.7,0,4.1-0.4,5.2-1.2l3.6,11.4C149.5,359.2,146.7,361.9,137.1,361.9 M173.2,320.8c0,0,6.7-4.2,17.1-4.2
	c7.9,0,11.9,7.1,11.9,14.9V361h-16.4v-20c0-7.3,0-12.2-5.9-12.2c-3.1,0-6.8,2.3-6.8,2.3V361h-16.4v-68.8l16.4-1.3L173.2,320.8
	 M242.1,333.3c-0.9-4.3-4.5-7-9-7c-7.9,0-10.5,6.5-9.8,8.3h18.5C242.3,334.6,242.2,333.7,242.1,333.3L242.1,333.3z M232.8,363
	c-15.9,0-24.7-10.3-24.7-25.3c0-13.3,10.5-22,25.2-22c13,0,22.1,8.6,22.1,22.3v5.7l-32.3,0c0,5.1,5.8,7.8,10.2,7.8
	c4.5,0,6.8-1.3,9.1-3.3l9.6,6.7C250.2,356.9,244.3,363,232.8,363L232.8,363z M306.8,339.5c6.4,0,12.3-5.6,12.3-13.4
	c0-6.4-5.9-11.8-12.3-11.8c-6.5,0-12.4,5.4-12.4,11.7C294.4,333.9,300.3,339.4,306.8,339.5L306.8,339.5z M306.8,363.1
	c-19.9,0-34.9-15.5-34.9-37.1c0-20.3,17.1-34.8,34.9-34.8c17.8,0,34.9,14.5,34.9,34.8C341.7,347.6,326.7,363.1,306.8,363.1
	L306.8,363.1z M391.9,321.4v-27.7l22.3-1.5v70.4l-43.3-30v28.2h-22.4v-70.5L391.9,321.4 M423.6,360.8h22.5v-67.1h-22.5 M488.1,339.5
	c6.4,0,12.3-5.6,12.3-13.4c0-6.4-5.9-11.8-12.3-11.8c-6.5,0-12.4,5.4-12.4,11.8C475.7,333.9,481.6,339.5,488.1,339.5z M488.1,363.2
	c-19.9,0-34.9-15.5-34.9-37.1c0-20.3,17.1-34.8,34.9-34.8c17.8,0,34.9,14.5,34.9,34.8C523,347.7,508,363.1,488.1,363.2L488.1,363.2z
	 M573.2,293.7l22.4-1.5v70.4l-43.3-30v28.2h-22.4v-70.5l43.3,31.2"/>
<path class="st1" d="M612.9,298.2c1.3,0,3.4,0.2,3.4-1.7c0-1.4-1.3-1.6-2.4-1.6h-2.7v3.4C611.2,298.2,612.9,298.2,612.9,298.2z
	 M617.4,303.4H616l-2.7-4.4h-2.1v4.4H610V294h4.1c0.8,0,1.6,0,2.3,0.4c0.8,0.4,1.1,1.2,1.1,2.1c0,1.9-1.3,2.5-2.9,2.5L617.4,303.4
	L617.4,303.4z M620.5,298.7c0-4.2-3.3-7.4-7.4-7.4c-4,0-7.4,3.3-7.4,7.4s3.4,7.4,7.4,7.4C617.2,306.1,620.5,302.9,620.5,298.7
	L620.5,298.7z M604.8,298.7c0-4.7,3.7-8.4,8.4-8.4c4.7,0,8.4,3.7,8.4,8.4c0,4.7-3.7,8.4-8.4,8.4
	C608.5,307.1,604.8,303.4,604.8,298.7L604.8,298.7z"/>
</svg>
